<?xml version="1.0" encoding="utf-8"?>
<!-- Generator: Adobe Illustrator 24.3.0, SVG Export Plug-In . SVG Version: 6.00 Build 0)  -->
<svg version="1.1" id="master-artboard" xmlns="http://www.w3.org/2000/svg" xmlns:xlink="http://www.w3.org/1999/xlink" x="0px"
	 y="0px" viewBox="0 0 456.2 111.9" style="enable-background:new 0 0 456.2 111.9;" xml:space="preserve">
<style type="text/css">
	.st0{fill:#FFFFFF;}
	.st1{fill:url(#SVGID_1_);}
	.st2{fill:url(#SVGID_2_);}
	.st3{fill:url(#SVGID_3_);}
	.st4{fill:url(#SVGID_4_);}
	.st5{fill:url(#SVGID_5_);}
	.st6{fill:url(#SVGID_6_);}
</style>
<path class="st0" d="M180.4,94c-0.2-0.1-0.3-0.2-0.5-0.3c-0.1-0.1-0.2-0.1-0.3-0.2c0,0,0,0-0.1,0l0,0c-0.1,0-0.1-0.1-0.2-0.1v-0.1
	c0,0,0,0.1,0.1,0.1c0-0.1,0-0.1-0.1-0.2v-0.1c0-0.1,0-0.1-0.1-0.2v-0.1l0,0c0-0.1-0.1-0.1-0.1-0.2c0,0,0,0,0-0.1
	c-0.1-0.2-0.2-0.3-0.3-0.5c-0.2-0.3-0.3-0.7-0.3-1v-0.1c-3.7-9.7-7.8-25.6-6.2-44.9c1.5-16.6,6.8-29.5,10.9-37.4
	C130.8,30,70.1,42.3,0,28.5c2.3,5.8,5,11.7,8.2,17.2c41.1,7.3,83.4,5.5,123.4-5.3c-38,14.8-78.7,20.2-118.8,13.1
	c5.6,8.4,12,16.3,19.2,23.5c35-0.3,69.7-7.2,102.1-20.3c-29.5,15.8-61.6,25.5-94.7,27.1c7.4,6.3,15.3,11.7,23.6,16
	c27-4.8,53.1-13.6,77.5-26.1c-21,13.8-43.7,24.3-67.7,30.6c24.4,9.6,51.3,9.4,75.9-6.9c1.4-28.5,13.6,1.5,31.3-2.5
	c0.2-0.1,0.3-0.1,0.6-0.1l0.1-0.1c0.1,0,0.1-0.1,0.2-0.1s0.1-0.1,0.2-0.1c0.1-0.1,0.2-0.1,0.3-0.2C181,94.2,180.7,94.1,180.4,94z
	 M135.6,50c-7.5,2.8-14.7,4.8-21.1,5.8c5.5-3.5,12.2-6.8,19.6-9.6c7.5-2.8,14.7-4.8,21.1-5.8C149.7,43.9,143.1,47.2,135.6,50z
	 M136.1,68.3c-6.7,3.2-13.3,5.7-19.3,7.1c4.8-3.7,10.8-7.3,17.5-10.5c6.7-3.2,13.3-5.7,19.3-7.1C148.7,61.4,142.7,65,136.1,68.3z
	 M139,33.9c-8.5,1.6-16.7,2.3-23.7,2.2c6.5-2.6,14.3-4.9,22.9-6.4c8.5-1.6,16.7-2.3,23.7-2.2C155.4,30.1,147.5,32.3,139,33.9z"/>
<path class="st0" d="M456.2,28.9c-69.4,13.7-129.8,0.8-181.9-21.3c4.1,8.1,9.4,21.2,11.1,38.1c1.5,16.7-1.1,30.7-4.2,40.6
	c-0.3,1.3-0.7,2.5-1.2,3.7c-0.5,1.3-0.9,2.5-1.3,3.7c0.3-1,0.8-1.9,1-3c-0.5,1-1,2.1-1.6,3c-0.2,0.3-0.4,0.6-0.6,0.9
	c0.1,0.2,0.2,0.4,0.3,0.6c0.1,0,0.2,0.1,0.3,0.1c0,0,0-0.1,0.1-0.1c17.6,4.3,29.7-26.3,31.2,2.8c24.4,16.7,51.2,17.2,75.3,7.5
	C361,99,338.2,88.1,317.3,74c24.3,12.8,50.2,22,77,27c8.2-4.4,16.1-9.8,23.3-16.1c-33-1.9-64.8-11.8-94.2-28.1
	C355.6,70.2,390,77.4,424.7,78c7.1-7.1,13.4-15.3,18.8-23.8c-39.7,6.9-80.1,1.2-117.8-14c39.8,11.3,81.8,13.3,122.4,6.1
	C451.2,40.6,453.9,34.7,456.2,28.9z M340.7,75.8c-5.9-1.6-12.5-4-19.2-7.3c-6.7-3.4-12.5-7-17.4-10.8c5.9,1.6,12.5,4,19.2,7.3
	C329.9,68.3,335.9,72.1,340.7,75.8z M342.8,55.9c-6.3-1.1-13.7-3.1-21-6c-7.4-2.9-14-6.3-19.5-9.9c6.3,1.1,13.7,3.1,21,6
	C330.7,48.9,337.3,52.4,342.8,55.9z M318.3,33.6c-8.4-1.6-16.3-4-22.7-6.6c7,0,15.1,0.7,23.7,2.3c8.4,1.6,16.3,4,22.7,6.6
	C334.8,35.9,326.7,35.2,318.3,33.6z"/>
<g transform="matrix(0.1880623399977871, 0, 0, 0.1880623399977871, 515.8369060269201, 235.6778703439936)">
	<g transform="matrix(0.8205252677202225, 0, 0, 0.8205252677202225, 291.6288234372423, 291.628779620169)">
		
			<linearGradient id="SVGID_1_" gradientUnits="userSpaceOnUse" x1="-509095.7188" y1="-264840.5938" x2="-509151.5" y2="-264859.5312" gradientTransform="matrix(8.748652e-05 0 0 -8.748652e-05 -13095.7402 -9473.375)">
			<stop  offset="0" style="stop-color:#8FD9FF"/>
			<stop  offset="1" style="stop-color:#005A97"/>
		</linearGradient>
		<path class="st1" d="M-2082.3-1376.9c5.6-58.1,4.6-112.8,3.6-139.6l-62.6,108.5l0.1,0.2c0,0-0.1,0.1-0.3,0.2l-0.2,0.3h-0.3
			c-7.7,5.1-67.4,44.2-138.1,76.5c-44.4,20.3-84.5,34.1-119.1,40.9c-22.3,4.3-42.5,5.8-60.3,4.4c62.9,62,149.3,100.1,244.5,100.1
			c26.2,0,51.6-2.9,76.2-8.3c12.9-15.2,23.9-36,32.9-62.2C-2094.9-1288.4-2086.9-1329-2082.3-1376.9z"/>
		
			<linearGradient id="SVGID_2_" gradientUnits="userSpaceOnUse" x1="103352.4375" y1="51497.8555" x2="103408.5469" y2="51515.7656" gradientTransform="matrix(8.748652e-05 0 0 -8.748652e-05 -13095.7402 -9473.375)">
			<stop  offset="0" style="stop-color:#FFF33B"/>
			<stop  offset="1" style="stop-color:#E93E3A"/>
		</linearGradient>
		<path class="st2" d="M-2288.2-1660.9h0.3c7.7-5.1,67.4-44.2,138.1-76.5c44.4-20.3,84.5-34.1,119.1-40.9
			c22.3-4.3,42.5-5.8,60.3-4.4c-63-61.8-149.4-100.1-244.6-100.1c-26.2,0-51.6,2.9-76.2,8.3c-13,15.2-23.9,36-32.9,62.2
			c-11.1,32.5-19.1,73.3-23.6,121c-5.6,58.1-4.6,112.8-3.6,139.6l62.7-108.6l-0.1-0.2c0,0,0.1-0.1,0.3-0.2L-2288.2-1660.9z"/>
		
			<linearGradient id="SVGID_3_" gradientUnits="userSpaceOnUse" x1="-133737.1719" y1="84996.1172" x2="-133690.5938" y2="84955.1953" gradientTransform="matrix(8.748652e-05 0 0 -8.748652e-05 -13095.7402 -9473.375)">
			<stop  offset="0" style="stop-color:#8CC63F"/>
			<stop  offset="0.1085" style="stop-color:#90C03D"/>
			<stop  offset="0.2559" style="stop-color:#9AAE38"/>
			<stop  offset="0.4256" style="stop-color:#AA922E"/>
			<stop  offset="0.612" style="stop-color:#C16A22"/>
			<stop  offset="0.8095" style="stop-color:#DF3812"/>
			<stop  offset="1" style="stop-color:#FF0000"/>
		</linearGradient>
		<path class="st3" d="M-2028.6-1767.5c-33.7,6.6-73,20.1-116.7,40c-53.1,24.3-99.9,52.3-122.8,66.8h125.4l0.1-0.2
			c0,0,0.1,0.1,0.3,0.2h0.4l0.2,0.3c8.3,4.1,71.9,36.3,135.3,81.3c39.8,28.3,71.7,56.2,94.9,82.8c15,17.2,26.3,34,34.1,50.2
			c7.2-28,11.1-57.4,11.1-87.6c0-91.1-34.9-174-92.2-236.2C-1978.1-1773.7-2001.6-1772.8-2028.6-1767.5z"/>
		
			<linearGradient id="SVGID_4_" gradientUnits="userSpaceOnUse" x1="-11971.6953" y1="-115988.0625" x2="-11978.377" y2="-116025.9766" gradientTransform="matrix(8.748652e-05 0 0 -8.748652e-05 -13095.7402 -9473.375)">
			<stop  offset="0" style="stop-color:#FF49C1"/>
			<stop  offset="9.650001e-02" style="stop-color:#F947C2"/>
			<stop  offset="0.2206" style="stop-color:#E943C6"/>
			<stop  offset="0.36" style="stop-color:#CF3BCD"/>
			<stop  offset="0.5105" style="stop-color:#AA31D6"/>
			<stop  offset="0.6699" style="stop-color:#7A23E1"/>
			<stop  offset="0.835" style="stop-color:#4113EF"/>
			<stop  offset="1" style="stop-color:#0000FF"/>
		</linearGradient>
		<path class="st4" d="M-1919.6-1489.3c-22.6-25.9-53.9-53.2-92.9-81c-47.6-33.8-95.3-60.3-119.2-72.9l62.7,108.6h0.2
			c0,0,0,0.2,0,0.3l0.2,0.3l-0.2,0.3c0.6,9.2,4.5,80.4-2.8,157.8c-4.6,48.6-12.8,90.2-24.2,123.5c-7.4,21.6-16.3,39.8-26.3,54.5
			c114.1-31.5,204.8-119.4,239.9-231.9C-1888.9-1448.6-1901.4-1468.6-1919.6-1489.3z"/>
		
			<linearGradient id="SVGID_5_" gradientUnits="userSpaceOnUse" x1="-686490.8125" y1="512886.1562" x2="-686534.25" y2="512930.4062" gradientTransform="matrix(8.748652e-05 0 0 -8.748652e-05 -13095.7402 -9473.375)">
			<stop  offset="0" style="stop-color:#C3D7FF"/>
			<stop  offset="1" style="stop-color:#00CBA5"/>
		</linearGradient>
		<path class="st5" d="M-2401.4-1300.5c33.7-6.6,73-20.1,116.7-40c53.1-24.3,99.9-52.3,122.8-66.8h-125.4l-0.1,0.2
			c0,0-0.1-0.1-0.3-0.2h-0.4l-0.2-0.3c-8.3-4.1-71.9-36.3-135.3-81.3c-39.8-28.3-71.7-56.2-94.9-82.8c-15-17.2-26.3-34-34.1-50.2
			c-7.2,28-11.1,57.4-11.1,87.6c0,91.1,34.9,174,92.2,236.2C-2451.9-1294.4-2428.4-1295.2-2401.4-1300.5z"/>
		
			<linearGradient id="SVGID_6_" gradientUnits="userSpaceOnUse" x1="-99615.7578" y1="5307.8003" x2="-99610.0156" y2="5345.8696" gradientTransform="matrix(8.748652e-05 0 0 -8.748652e-05 -13095.7402 -9473.375)">
			<stop  offset="0" style="stop-color:#EDE928"/>
			<stop  offset="1" style="stop-color:#F37E31"/>
		</linearGradient>
		<path class="st6" d="M-2510.5-1578.7c22.6,25.9,53.9,53.2,92.9,81c47.6,33.8,95.3,60.3,119.2,72.9l-62.7-108.6h-0.2
			c0,0,0-0.2,0-0.3l-0.2-0.3l0.2-0.3c-0.6-9.2-4.5-80.4,2.8-157.8c4.6-48.6,12.8-90.2,24.2-123.5c7.4-21.6,16.3-39.8,26.3-54.5
			c-114.1,31.4-204.7,119.4-239.9,231.9C-2541.1-1619.5-2528.6-1599.6-2510.5-1578.7z"/>
	</g>
</g>
</svg>
