<?xml version="1.0" encoding="utf-8"?>
<!-- Generator: Adobe Illustrator 24.3.0, SVG Export Plug-In . SVG Version: 6.00 Build 0)  -->
<svg version="1.1" id="master-artboard" xmlns="http://www.w3.org/2000/svg" xmlns:xlink="http://www.w3.org/1999/xlink" x="0px"
	 y="0px" viewBox="0 0 964.9 119.4" style="enable-background:new 0 0 964.9 119.4;" xml:space="preserve">
<style type="text/css">
	.st0{fill:#FFFFFF;}
	.st1{fill:url(#SVGID_1_);}
	.st2{fill:url(#SVGID_2_);}
	.st3{fill:url(#SVGID_3_);}
	.st4{fill:url(#SVGID_4_);}
	.st5{fill:url(#SVGID_5_);}
	.st6{fill:url(#SVGID_6_);}
	.st7{enable-background:new    ;}
</style>
<path class="st0" d="M180.4,98.3c-0.2-0.1-0.3-0.2-0.5-0.3c-0.1-0.1-0.2-0.1-0.3-0.2c0,0,0,0-0.1,0l0,0c-0.1,0-0.1-0.1-0.2-0.1v-0.1
	c0,0,0,0.1,0.1,0.1c0-0.1,0-0.1-0.1-0.2v-0.1c0-0.1,0-0.1-0.1-0.2v-0.1l0,0c0-0.1-0.1-0.1-0.1-0.2c0,0,0,0,0-0.1
	c-0.1-0.2-0.2-0.3-0.3-0.5c-0.2-0.3-0.3-0.7-0.3-1v-0.1c-3.7-9.7-7.8-25.6-6.2-44.9c1.5-16.6,6.8-29.5,10.9-37.4
	C130.8,34.3,70.1,46.6,0,32.8C2.3,38.6,5,44.5,8.2,50c41.1,7.3,83.4,5.5,123.4-5.3c-38,14.8-78.7,20.2-118.8,13.1
	c5.6,8.4,12,16.3,19.2,23.5c35-0.3,69.7-7.2,102.1-20.3c-29.5,15.8-61.6,25.5-94.7,27.1c7.4,6.3,15.3,11.7,23.6,16
	C90,99.3,116.1,90.5,140.5,78c-21,13.8-43.7,24.3-67.7,30.6c24.4,9.6,51.3,9.4,75.9-6.9c1.4-28.5,13.6,1.5,31.3-2.5
	c0.2-0.1,0.3-0.1,0.6-0.1l0.1-0.1c0.1,0,0.1-0.1,0.2-0.1c0.1,0,0.1-0.1,0.2-0.1c0.1-0.1,0.2-0.1,0.3-0.2
	C181,98.5,180.7,98.4,180.4,98.3z M135.6,54.3c-7.5,2.8-14.7,4.8-21.1,5.8c5.5-3.5,12.2-6.8,19.6-9.6c7.5-2.8,14.7-4.8,21.1-5.8
	C149.7,48.2,143.1,51.5,135.6,54.3z M136.1,72.6c-6.7,3.2-13.3,5.7-19.3,7.1c4.8-3.7,10.8-7.3,17.5-10.5c6.7-3.2,13.3-5.7,19.3-7.1
	C148.7,65.7,142.7,69.3,136.1,72.6z M139,38.2c-8.5,1.6-16.7,2.3-23.7,2.2c6.5-2.6,14.3-4.9,22.9-6.4c8.5-1.6,16.7-2.3,23.7-2.2
	C155.4,34.4,147.5,36.6,139,38.2z"/>
<path class="st0" d="M964.9,38.5c-69.7,12.3-129.8-1.8-181.4-25c3.9,8.2,9,21.4,10.3,38.3c1.2,16.7-1.7,30.7-5,40.5
	c-0.3,1.3-0.8,2.5-1.3,3.7c-0.5,1.3-1,2.5-1.4,3.7c0.3-1,0.8-1.9,1.1-3c-0.5,1-1,2.1-1.7,3c-0.2,0.3-0.4,0.6-0.6,0.9
	c0.1,0.2,0.2,0.4,0.3,0.6c0.1,0,0.2,0.1,0.3,0.1c0,0,0-0.1,0.1-0.1c17.5,4.7,30.2-25.7,31.1,3.4c24.1,17.2,50.8,18.2,75.1,9
	c-23.6-7-46.1-18.3-66.7-32.9c24,13.3,49.7,23,76.4,28.6c8.3-4.2,16.3-9.5,23.6-15.6c-32.8-2.5-64.4-13.1-93.5-30
	c31.9,14.1,66.2,22,100.9,23.3c7.2-7,13.7-15,19.3-23.4c-39.8,6.1-80.1-0.4-117.5-16.4c39.6,12.1,81.5,15,122.3,8.6
	C959.7,50.1,962.5,44.3,964.9,38.5z M848.5,83.1c-5.9-1.7-12.4-4.3-19-7.7c-6.6-3.5-12.4-7.3-17.2-11.2c5.9,1.7,12.4,4.3,19,7.7
	C837.9,75.4,843.8,79.3,848.5,83.1z M851,63.2c-6.3-1.2-13.6-3.4-20.9-6.4c-7.3-3-13.9-6.6-19.3-10.3c6.3,1.2,13.6,3.4,20.9,6.4
	C839.1,56,845.6,59.6,851,63.2z M827,40.4c-8.4-1.8-16.2-4.3-22.6-7.1c7,0.1,15.1,1,23.6,2.8c8.4,1.8,16.2,4.3,22.6,7.1
	C843.4,43.1,835.3,42.2,827,40.4z"/>
<g transform="matrix(0.1880623399977871, 0, 0, 0.1880623399977871, 515.8369060269201, 235.6778703439936)">
	<g transform="matrix(0.8205252677202225, 0, 0, 0.8205252677202225, 291.6288234372423, 291.628779620169)">
		
			<linearGradient id="SVGID_1_" gradientUnits="userSpaceOnUse" x1="598630.75" y1="110304.7891" x2="598250.6875" y2="110175.7734" gradientTransform="matrix(3.674122e-03 0 0 -3.674122e-03 -5450.7251 -3264.092)">
			<stop  offset="0" style="stop-color:#8FD9FF"/>
			<stop  offset="1" style="stop-color:#005A97"/>
		</linearGradient>
		<path class="st1" d="M-615.1-1376.9c5.6-58.1,4.6-112.8,3.6-139.6l-62.6,108.5l0.1,0.2c0,0-0.1,0.1-0.3,0.2l-0.2,0.3h-0.3
			c-7.7,5.1-67.4,44.2-138.1,76.5c-44.4,20.3-84.5,34.1-119.1,40.9c-22.3,4.3-42.5,5.8-60.3,4.4c62.9,62,149.3,100.1,244.5,100.1
			c26.2,0,51.6-2.9,76.2-8.3c12.9-15.2,23.9-36,32.9-62.2C-627.7-1288.4-619.7-1329-615.1-1376.9z"/>
		
			<linearGradient id="SVGID_2_" gradientUnits="userSpaceOnUse" x1="542641" y1="191216.9062" x2="543021" y2="191338.2031" gradientTransform="matrix(3.674122e-03 0 0 -3.674122e-03 -5450.7251 -3264.092)">
			<stop  offset="0" style="stop-color:#FFF33B"/>
			<stop  offset="1" style="stop-color:#E93E3A"/>
		</linearGradient>
		<path class="st2" d="M-821-1660.9h0.3c7.7-5.1,67.4-44.2,138.1-76.5c44.4-20.3,84.5-34.1,119.1-40.9c22.3-4.3,42.5-5.8,60.3-4.4
			c-63-61.8-149.4-100.1-244.6-100.1c-26.2,0-51.6,2.9-76.2,8.3c-13,15.2-23.9,36-32.9,62.2c-11.1,32.5-19.1,73.3-23.6,121
			c-5.6,58.1-4.6,112.8-3.6,139.6l62.7-108.6l-0.1-0.2c0,0,0.1-0.1,0.3-0.2L-821-1660.9z"/>
		
			<linearGradient id="SVGID_3_" gradientUnits="userSpaceOnUse" x1="396616.8125" y1="-379582.5" x2="396918.4375" y2="-379847.5" gradientTransform="matrix(3.674122e-03 0 0 -3.674122e-03 -5450.7251 -3264.092)">
			<stop  offset="0" style="stop-color:#8CC63F"/>
			<stop  offset="0.1085" style="stop-color:#90C03D"/>
			<stop  offset="0.2559" style="stop-color:#9AAE38"/>
			<stop  offset="0.4256" style="stop-color:#AA922E"/>
			<stop  offset="0.612" style="stop-color:#C16A22"/>
			<stop  offset="0.8095" style="stop-color:#DF3812"/>
			<stop  offset="1" style="stop-color:#FF0000"/>
		</linearGradient>
		<path class="st3" d="M-561.4-1767.5c-33.7,6.6-73,20.1-116.7,40c-53.1,24.3-99.9,52.3-122.8,66.8h125.4l0.1-0.2
			c0,0,0.1,0.1,0.3,0.2h0.4l0.2,0.3c8.3,4.1,71.9,36.3,135.3,81.3c39.8,28.3,71.7,56.2,94.9,82.8c15,17.2,26.3,34,34.1,50.2
			c7.2-28,11.1-57.4,11.1-87.6c0-91.1-34.9-174-92.2-236.2C-510.9-1773.7-534.4-1772.8-561.4-1767.5z"/>
		
			<linearGradient id="SVGID_4_" gradientUnits="userSpaceOnUse" x1="13742.8457" y1="20460.8242" x2="13673.1084" y2="20065.0703" gradientTransform="matrix(3.674122e-03 0 0 -3.674122e-03 -5450.7251 -3264.092)">
			<stop  offset="0" style="stop-color:#FF49C1"/>
			<stop  offset="9.650001e-02" style="stop-color:#F947C2"/>
			<stop  offset="0.2206" style="stop-color:#E943C6"/>
			<stop  offset="0.36" style="stop-color:#CF3BCD"/>
			<stop  offset="0.5105" style="stop-color:#AA31D6"/>
			<stop  offset="0.6699" style="stop-color:#7A23E1"/>
			<stop  offset="0.835" style="stop-color:#4113EF"/>
			<stop  offset="1" style="stop-color:#0000FF"/>
		</linearGradient>
		<path class="st4" d="M-452.4-1489.3c-22.6-25.9-53.9-53.2-92.9-81c-47.6-33.8-95.3-60.3-119.2-72.9l62.7,108.6h0.2
			c0,0,0,0.2,0,0.3l0.2,0.3l-0.2,0.3c0.6,9.2,4.5,80.4-2.8,157.8c-4.6,48.6-12.8,90.2-24.2,123.5c-7.4,21.6-16.3,39.8-26.3,54.5
			c114.1-31.5,204.8-119.4,239.9-231.9C-421.7-1448.6-434.2-1468.6-452.4-1489.3z"/>
		
			<linearGradient id="SVGID_5_" gradientUnits="userSpaceOnUse" x1="295087.0312" y1="-486114.7812" x2="294810.6875" y2="-485833.2188" gradientTransform="matrix(3.674122e-03 0 0 -3.674122e-03 -5450.7251 -3264.092)">
			<stop  offset="0" style="stop-color:#C3D7FF"/>
			<stop  offset="1" style="stop-color:#00CBA5"/>
		</linearGradient>
		<path class="st5" d="M-934.2-1300.5c33.7-6.6,73-20.1,116.7-40c53.1-24.3,99.9-52.3,122.8-66.8h-125.4l-0.1,0.2
			c0,0-0.1-0.1-0.3-0.2h-0.4l-0.2-0.3c-8.3-4.1-71.9-36.3-135.3-81.3c-39.8-28.3-71.7-56.2-94.9-82.8c-15-17.2-26.3-34-34.1-50.2
			c-7.2,28-11.1,57.4-11.1,87.6c0,91.1,34.9,174,92.2,236.2C-984.7-1294.4-961.2-1295.2-934.2-1300.5z"/>
		
			<linearGradient id="SVGID_6_" gradientUnits="userSpaceOnUse" x1="-100704.0547" y1="-10827.1816" x2="-100643.0312" y2="-10422.7109" gradientTransform="matrix(3.674122e-03 0 0 -3.674122e-03 -5450.7251 -3264.092)">
			<stop  offset="0" style="stop-color:#EDE928"/>
			<stop  offset="1" style="stop-color:#F37E31"/>
		</linearGradient>
		<path class="st6" d="M-1043.3-1578.7c22.6,25.9,53.9,53.2,92.9,81c47.6,33.8,95.3,60.3,119.2,72.9l-62.7-108.6h-0.2
			c0,0,0-0.2,0-0.3l-0.2-0.3l0.2-0.3c-0.6-9.2-4.5-80.4,2.8-157.8c4.6-48.6,12.8-90.2,24.2-123.5c7.4-21.6,16.3-39.8,26.3-54.5
			c-114.1,31.4-204.7,119.4-239.9,231.9C-1073.9-1619.5-1061.4-1599.6-1043.3-1578.7z"/>
	</g>
</g>
<g class="st7">
	<path class="st0" d="M193.9,70.2v31.2h-12.6V13.3h21.5c15.8,0,23.7,9.2,23.7,27.6c0,8.9-2.4,16.1-7.2,21.5
		c-4.8,5.4-10.8,8-18.1,7.8L193.9,70.2L193.9,70.2z M193.9,26.9v29.9h6.4c8.7,0,13-5.1,13-15.3c0-9.7-4.3-14.7-12.8-14.7L193.9,26.9
		L193.9,26.9z"/>
	<path class="st0" d="M249.4,13.3v88.1h-12.6V13.3H249.4z"/>
	<path class="st0" d="M315.6,101.4h-15l-12.3-30.2c-0.4-1-0.9-2.9-1.3-5.5h-0.2c-0.4,2-1,3.9-1.5,5.7l-12.5,30h-15.1l21-44.1
		l-19.2-44.1h15.3L285.2,41c0.7,1.9,1.4,4.3,2,7h0.2c0.4-1.7,1.2-4.2,2.2-7.4L301,13.2H315l-19.7,43.7L315.6,101.4z"/>
	<path class="st0" d="M361.6,101.4H324V13.3h36.2v14.2h-23.6v22.4h21.9V64h-21.9v23.2h25L361.6,101.4L361.6,101.4z"/>
	<path class="st0" d="M409.9,101.4h-37.2V13.3h12.6v74h24.6V101.4z"/>
</g>
<g class="st7">
	<path class="st0" d="M567.2,101.4h-12.6V64.3h-28.9v37.1h-12.6V13.3h12.6v36.3h28.9V13.3h12.6V101.4z"/>
	<path class="st0" d="M637.7,101.4H624l-5.2-21h-24.4l-5.1,21h-13.7l24.1-88.1h14.5L637.7,101.4z M615.7,66.8l-7.9-31.9
		c-0.3-1.3-0.7-3.7-1-7.3h-0.3c-0.3,2.7-0.6,5-1.1,7.2l-8,32L615.7,66.8L615.7,66.8z"/>
	<path class="st0" d="M725.7,13.3l-17.5,88.1h-14.1l-11.6-58.8c-0.5-2.9-1-6.1-1-9.6h-0.2c-0.3,4.1-0.7,7.3-1.1,9.6l-11.8,58.9
		h-14.5l-17.6-88.1h13.8l10.4,61.4c0.4,2.6,0.8,5.8,1,9.6h0.3c0.1-2.8,0.5-6.1,1.3-9.9l12.5-61.1h13.2l11.6,61.8
		c0.3,1.9,0.7,5,1,9.1h0.3c0.2-3.2,0.5-6.3,1-9.5L713,13.4L725.7,13.3L725.7,13.3z"/>
	<path class="st0" d="M785.9,101.4h-16.3l-20.7-38.9c-0.4-1-1-2.3-1.7-4.3H747v43.2h-12.6V13.3H747V55h0.3c0.3-1.1,1-2.6,1.7-4.4
		l19.8-37.2H784l-24.2,42.1L785.9,101.4z"/>
</g>
</svg>
